<?xml version="1.0" encoding="utf-8"?>
<!-- Generator: Adobe Illustrator 16.0.0, SVG Export Plug-In . SVG Version: 6.00 Build 0)  -->
<!DOCTYPE svg PUBLIC "-//W3C//DTD SVG 1.1//EN" "http://www.w3.org/Graphics/SVG/1.1/DTD/svg11.dtd">
<svg version="1.1" id="图层_1" xmlns="http://www.w3.org/2000/svg" xmlns:xlink="http://www.w3.org/1999/xlink" x="0px" y="0px"
	 width="150px" height="30px" viewBox="0 0 150 30" enable-background="new 0 0 150 30" xml:space="preserve">
<path fill="#FFFFFF" d="M31.963,6.795l-0.268-0.252l0.131-0.138c0.002,0.074-0.002,0.141-0.016,0.2
	c0.126-0.015,0.207-0.018,0.242-0.015c0.036,0.003,0.072,0.006,0.098,0.013L31.963,6.795z M31.504,7.684l0.165-0.18l0.752-0.779
	l0.185-0.179l-0.213-0.203l-0.139,0.156c-0.005-0.069-0.007-0.131-0.011-0.19L32.146,6.31l-0.133,0.007
	c-0.023,0.001-0.055,0-0.096-0.004l0.151-0.14l-0.221-0.207l-0.119,0.131L31.49,6.345l-0.198-0.184l0.253-0.259l0.176-0.167
	L31.5,5.526l-0.175,0.191l-0.716,0.742l-0.17,0.163l0.218,0.211l0.16-0.179l0.248-0.257l0.193,0.185l-0.197,0.206l-0.17,0.168
	l0.219,0.202l0.16-0.175l0.196-0.204l0.269,0.254l-0.267,0.276l-0.176,0.172L31.504,7.684z M30.037,6.808l1.334,1.262l0.226,0.226
	l0.232-0.244L31.8,8.028l1.164-1.205l0.042,0.039l0.239-0.247l-0.239-0.212l-1.347-1.275l-0.21-0.211l-0.181,0.204l-1.252,1.293
	l-0.198,0.195L30.037,6.808z M30.273,6.579l1.164-1.203l1.316,1.246l-1.166,1.203L30.273,6.579z"/>
<path fill="#FFFFFF" d="M34.592,5.01c0.132-0.19,0.229-0.353,0.29-0.479c-0.015-0.017-0.034-0.029-0.051-0.041
	c-0.093,0.151-0.179,0.281-0.261,0.391c-0.078,0.112-0.205,0.256-0.38,0.428c-0.034-0.029-0.067-0.053-0.097-0.073
	c-0.032-0.024-0.094-0.058-0.186-0.107c0.09-0.067,0.166-0.128,0.226-0.187c0.063-0.061,0.133-0.141,0.215-0.239
	C34.426,4.6,34.5,4.493,34.565,4.379L34.526,4.37c-0.099,0.109-0.173,0.189-0.228,0.239c-0.055,0.053-0.145,0.132-0.269,0.246
	c-0.031-0.028-0.063-0.054-0.088-0.07c-0.029-0.021-0.095-0.061-0.202-0.117c0.077-0.049,0.175-0.12,0.301-0.211
	c0.127-0.09,0.268-0.242,0.421-0.455L34.1,4.188l-0.209,0.116l-0.136-0.259l0.215-0.104l1.025-0.53l0.235-0.127l0.134,0.262
	l-0.237,0.116l-0.363,0.187c0.045,0.007,0.09,0.014,0.14,0.021c-0.063,0.093-0.123,0.186-0.181,0.274
	c0.104,0.015,0.17,0.028,0.198,0.043l0.081,0.041c0.124-0.228,0.193-0.363,0.209-0.413l0.063-0.174
	c0.039,0.017,0.075,0.028,0.107,0.039c0.031,0.009,0.116,0.024,0.255,0.042c-0.077,0.131-0.141,0.247-0.197,0.348
	c0.041,0.042,0.105,0.103,0.192,0.178c0.087,0.076,0.206,0.129,0.354,0.161c0.152,0.037,0.301,0.046,0.448,0.031
	c-0.017,0.066-0.031,0.12-0.039,0.162c-0.01,0.043-0.018,0.115-0.027,0.214c-0.212-0.015-0.375-0.039-0.49-0.083
	c-0.116-0.042-0.218-0.092-0.307-0.149c-0.089-0.063-0.187-0.144-0.295-0.252l-0.064,0.095c0.028,0.039,0.055,0.076,0.075,0.108
	c0.021,0.033,0.059,0.098,0.112,0.194c0.051,0.098,0.086,0.18,0.105,0.244c0.019,0.071,0.016,0.146-0.01,0.221
	c-0.026,0.075-0.136,0.165-0.329,0.268c-0.079-0.095-0.132-0.152-0.159-0.172l-0.104-0.081c0.139-0.048,0.221-0.087,0.238-0.128
	c0.022-0.035,0.022-0.083,0.002-0.131c-0.018-0.052-0.037-0.094-0.051-0.122l-0.014-0.03c-0.059,0.106-0.135,0.226-0.23,0.366
	c-0.096,0.137-0.183,0.248-0.261,0.326l-0.26,0.288c-0.077-0.06-0.131-0.097-0.17-0.117l-0.133-0.068
	C34.27,5.397,34.459,5.202,34.592,5.01z M33.461,4.383L33.4,4.249l-0.143-0.267l-0.095-0.17l0.28-0.133l0.66-0.339
	c-0.049-0.019-0.114-0.036-0.197-0.055c0.028-0.031,0.055-0.062,0.075-0.09C34,3.167,34.04,3.105,34.1,3.009
	c0.157,0.034,0.272,0.064,0.349,0.085c-0.017,0.031-0.03,0.06-0.04,0.085l0.708-0.365l0.253-0.142l0.086,0.181l0.142,0.266
	l0.079,0.135l-0.313,0.159l-0.067-0.137L35.205,3.1l-1.59,0.825l0.086,0.168l0.075,0.129L33.461,4.383z"/>
<path fill="#FFFFFF" d="M37.719,2.418l0.521-0.082l0.052,0.316L37.77,2.734L37.719,2.418z M37.371,2.398l0.166,1.049l0.036,0.284
	l0.347-0.054L37.91,3.636l0.525-0.083l0.062,0.398c0.01,0.06,0.024,0.109,0.042,0.149c0.022,0.032,0.058,0.062,0.115,0.084
	c0.058,0.022,0.138,0.026,0.244,0.008c0.106-0.016,0.244-0.033,0.414-0.056c0.176-0.023,0.308-0.042,0.392-0.058
	c0.085-0.019,0.147-0.04,0.185-0.062c0.041-0.024,0.074-0.058,0.103-0.104c0.03-0.045,0.059-0.164,0.085-0.36
	c-0.102-0.019-0.22-0.053-0.356-0.109v0.112c0.001,0.07-0.013,0.123-0.044,0.156c-0.031,0.033-0.073,0.057-0.126,0.069
	c-0.055,0.016-0.146,0.03-0.277,0.046l-0.302,0.041c-0.063,0.008-0.107,0.003-0.125-0.013c-0.02-0.02-0.029-0.038-0.034-0.064
	l-0.046-0.288l0.597-0.094l0.008,0.053l0.344-0.053l-0.05-0.268l-0.168-1.077l-0.03-0.241l-0.222,0.042l-0.718,0.111l-0.025-0.153
	l-0.027-0.216l-0.348,0.053l0.043,0.216l0.021,0.154l-0.607,0.094l-0.262,0.031L37.371,2.398z M37.815,3.026l0.521-0.081l0.05,0.31
	l-0.522,0.081L37.815,3.026z M38.575,2.286l0.596-0.093l0.05,0.316l-0.596,0.092L38.575,2.286z M38.67,2.894l0.597-0.093
	l0.048,0.309L38.72,3.203L38.67,2.894z"/>
<path fill="#FFFFFF" d="M41.981,2.44l0.052,0.108c0.014,0.029,0.061,0.135,0.137,0.317c-0.053,0.106-0.106,0.188-0.156,0.241
	c-0.05,0.056-0.11,0.113-0.183,0.171L41.981,2.44z M41.707,4.012l0.06-0.36l0.059-0.333c0.058,0.082,0.097,0.141,0.113,0.173
	c0.017,0.035,0.037,0.066,0.053,0.1c0.123-0.115,0.199-0.195,0.232-0.235c0.033-0.039,0.062-0.076,0.082-0.105l0.023,0.08
	c0.006,0.014,0.009,0.052,0.016,0.117l0.074-0.049c0.045-0.028,0.123-0.063,0.235-0.102c-0.044-0.142-0.09-0.276-0.14-0.405
	l0.045-0.088c0.016-0.033,0.046-0.101,0.09-0.21c0.07,0.122,0.113,0.2,0.129,0.232c0.013,0.031,0.042,0.104,0.078,0.218
	l-0.062,0.108c-0.044,0.078-0.1,0.149-0.165,0.222c-0.064,0.07-0.152,0.141-0.26,0.214c0.082,0.065,0.137,0.113,0.162,0.142
	c0.026,0.03,0.052,0.061,0.081,0.095c0.061-0.043,0.112-0.088,0.149-0.127c0.039-0.04,0.123-0.132,0.246-0.278l0.044,0.162
	c0.007,0.014,0.015,0.063,0.03,0.145c0.111-0.078,0.212-0.141,0.298-0.187L43.35,3.441c-0.002-0.008-0.052-0.135-0.144-0.381
	l0.07-0.162c0.024-0.063,0.055-0.147,0.093-0.249l0.054-0.158c0.004-0.017,0.013-0.045,0.028-0.081
	c-0.111-0.026-0.22-0.062-0.333-0.105l-0.015,0.087c-0.008,0.046-0.034,0.134-0.077,0.268c-0.037-0.076-0.069-0.143-0.1-0.201
	l-0.068,0.043c-0.041,0.025-0.105,0.05-0.198,0.072l0.056-0.138c0.001-0.004,0.008-0.025,0.021-0.069
	c0.017-0.039,0.028-0.077,0.04-0.104c-0.132-0.034-0.239-0.075-0.326-0.119l-0.024,0.112c-0.009,0.046-0.021,0.089-0.035,0.129
	c-0.012,0.039-0.028,0.083-0.047,0.128c-0.041-0.086-0.077-0.163-0.105-0.233c-0.083,0.045-0.138,0.073-0.167,0.082
	c-0.029,0.008-0.056,0.017-0.084,0.023l0.066-0.376l1.555,0.27l-0.284,1.607c-0.007,0.033-0.017,0.054-0.032,0.071
	c-0.017,0.017-0.058,0.019-0.127,0.005c-0.057-0.012-0.117-0.027-0.181-0.049l0.027,0.094c0.025,0.091,0.033,0.159,0.031,0.203
	c0,0.046-0.005,0.08-0.005,0.106c0.177,0.02,0.308,0.021,0.391,0.008c0.082-0.015,0.136-0.042,0.157-0.089
	c0.023-0.048,0.038-0.101,0.049-0.155l0.305-1.731l0.065-0.331l-0.33-0.048l-1.583-0.275l-0.334-0.069l-0.052,0.334l-0.29,1.632
	l-0.069,0.357L41.707,4.012z"/>
<path fill="#FFFFFF" d="M45.523,3.903c-0.023-0.15-0.047-0.254-0.065-0.306L45.423,3.51c0.12,0.015,0.259,0.001,0.416-0.039
	c0.156-0.04,0.304-0.094,0.446-0.158c0.142-0.069,0.266-0.148,0.372-0.239l0.067-0.057c0.068,0.116,0.147,0.217,0.232,0.308
	c-0.177,0.104-0.326,0.191-0.449,0.256c-0.123,0.069-0.279,0.134-0.469,0.192C45.848,3.829,45.674,3.873,45.523,3.903z
	 M45.483,4.487c0.056-0.011,0.13-0.033,0.226-0.065C45.803,4.387,45.9,4.346,46,4.301c0.102-0.047,0.203-0.103,0.304-0.173
	c0.102-0.068,0.166-0.116,0.192-0.138l0.055-0.051c0.064,0.127,0.136,0.249,0.216,0.362c-0.056,0.027-0.096,0.045-0.122,0.059
	l-0.222,0.106c-0.106,0.048-0.213,0.094-0.318,0.136C46,4.643,45.873,4.686,45.719,4.731c0.316,0.159,0.631,0.31,0.94,0.462
	c-0.014-0.15-0.025-0.247-0.036-0.291l-0.036-0.178c0.145,0.017,0.239,0.02,0.284,0.014l0.074-0.011
	c0.058,0.413,0.1,0.751,0.129,1.011c-0.198,0.028-0.297,0.042-0.303,0.044L46.67,5.807c0.004-0.042,0.006-0.08,0.008-0.112
	c0.003-0.033-0.001-0.095-0.007-0.186c-0.159-0.074-0.385-0.174-0.685-0.303C45.69,5.076,45.507,5,45.438,4.971
	c-0.069-0.025-0.151-0.05-0.246-0.074c0.032-0.137,0.042-0.233,0.04-0.294l-0.004-0.097C45.342,4.504,45.429,4.496,45.483,4.487z
	 M47.262,3.258c0.092,0.07,0.201,0.133,0.323,0.192c-0.024,0.033-0.039,0.062-0.055,0.093c-0.016,0.026-0.03,0.062-0.046,0.105
	c-0.016,0.047-0.032,0.128-0.048,0.249c-0.017,0.119-0.007,0.233,0.028,0.336c0.035,0.105,0.066,0.182,0.097,0.236
	c0.027,0.055,0.057,0.099,0.079,0.133c0.027,0.036,0.079,0.092,0.161,0.169c-0.036,0.012-0.073,0.027-0.106,0.046
	c-0.033,0.017-0.117,0.073-0.254,0.163c-0.098-0.131-0.179-0.268-0.234-0.41c-0.057-0.142-0.091-0.27-0.104-0.389
	c-0.013-0.117-0.012-0.228,0-0.337c0.014-0.105,0.029-0.193,0.046-0.261C47.167,3.519,47.204,3.41,47.262,3.258z"/>
<path fill="#FFFFFF" d="M48.924,6.689l0.274-0.253l0.505,0.531l-0.273,0.256L48.924,6.689z M50.422,6.558l-0.805-0.853l-0.208-0.233
	L49.17,5.691l0.222,0.222l0.807,0.854l0.229,0.256l0.24-0.222L50.422,6.558z M49.897,5.621l1.086,1.149l-1.247,1.155
	c-0.038,0.036-0.066,0.054-0.088,0.055s-0.051-0.019-0.092-0.059c-0.016-0.013-0.04-0.041-0.07-0.075
	c-0.033-0.038-0.063-0.074-0.091-0.105l-0.042,0.101c-0.025,0.056-0.05,0.102-0.08,0.138c-0.027,0.038-0.054,0.069-0.078,0.099
	c0.164,0.153,0.281,0.243,0.358,0.269c0.073,0.029,0.125,0.037,0.157,0.025c0.031-0.009,0.079-0.044,0.14-0.102l1.386-1.279
	l0.219-0.188l-0.221-0.222l-1.109-1.175L49.885,5.14l-0.243,0.223L49.897,5.621z M49.02,6.155l-0.352,0.327l-0.206,0.173L48.66,6.85
	l0.574,0.607l0.2,0.227l0.189-0.191l0.353-0.326l0.192-0.16l-0.216-0.213l-0.573-0.609l-0.182-0.206L49.02,6.155z"/>
<path fill="#FFFFFF" d="M29.813,10.747l0.075,0.076l-0.073,0.15l-0.594-0.122l0.015-0.192c0.146,0,0.273-0.028,0.382-0.081
	c0.108-0.055,0.187-0.131,0.233-0.226c0.035-0.071,0.046-0.139,0.034-0.197c-0.014-0.06-0.047-0.104-0.1-0.127
	c-0.092-0.045-0.238,0.05-0.435,0.284c-0.029,0.031-0.051,0.057-0.067,0.071c-0.144,0.167-0.274,0.267-0.389,0.301
	c-0.116,0.033-0.243,0.019-0.387-0.05c-0.186-0.092-0.311-0.221-0.372-0.383c-0.061-0.167-0.048-0.339,0.043-0.52
	c0.038-0.08,0.086-0.15,0.144-0.212c0.056-0.063,0.125-0.118,0.198-0.166l-0.099-0.081l0.071-0.145l0.75,0.129l-0.019,0.218
	c-0.193-0.006-0.354,0.021-0.492,0.083c-0.137,0.062-0.233,0.146-0.288,0.264c-0.041,0.079-0.05,0.158-0.032,0.232
	c0.02,0.079,0.06,0.132,0.123,0.163c0.092,0.042,0.229-0.032,0.406-0.232c0.022-0.027,0.041-0.046,0.052-0.061
	c0.089-0.097,0.163-0.17,0.219-0.226c0.056-0.057,0.104-0.089,0.138-0.107c0.071-0.033,0.151-0.053,0.233-0.05
	c0.082,0.002,0.164,0.022,0.247,0.062c0.163,0.078,0.27,0.194,0.325,0.354c0.053,0.157,0.041,0.317-0.039,0.479
	c-0.034,0.067-0.076,0.128-0.125,0.18C29.941,10.667,29.882,10.71,29.813,10.747z"/>
<path fill="#FFFFFF" d="M29.679,11.333l-0.449,1.376l-0.635,0.009l-0.018-0.182c0.165-0.021,0.287-0.058,0.37-0.11
	c0.084-0.054,0.141-0.137,0.176-0.241l0.008-0.029l-1.046-0.331c-0.145-0.045-0.242-0.059-0.291-0.045
	c-0.05,0.013-0.087,0.059-0.115,0.134l-0.231-0.071l0.269-0.831l0.231,0.073c-0.024,0.078-0.019,0.135,0.011,0.177
	c0.03,0.04,0.12,0.081,0.268,0.13l1.045,0.333l0.007-0.027c0.037-0.109,0.037-0.209,0.001-0.298
	c-0.036-0.094-0.112-0.193-0.236-0.302l0.123-0.138L29.679,11.333z"/>
<path fill="#FFFFFF" d="M28.124,13.469l0.063-0.351l0.522,0.292L28.124,13.469z M27.904,12.642c-0.008-0.004-0.019-0.01-0.032-0.019
	c-0.166-0.096-0.247-0.209-0.243-0.334l-0.24-0.044l-0.137,0.718l0.232,0.045c0.017-0.071,0.037-0.12,0.062-0.145
	c0.027-0.022,0.066-0.03,0.114-0.021c0.007,0,0.015,0.004,0.025,0.008c0.009,0.003,0.018,0.006,0.032,0.01l0.25,0.123l-0.101,0.527
	l-0.284,0.039c-0.014,0.005-0.026,0.005-0.04,0.005c-0.014-0.004-0.03-0.004-0.047-0.007c-0.039-0.007-0.066-0.024-0.078-0.053
	c-0.012-0.027-0.013-0.075,0-0.136l0.002-0.021l-0.232-0.043l-0.161,0.838l0.24,0.045c0.032-0.098,0.131-0.159,0.293-0.183
	l0.014-0.003l1.52-0.212l0.077-0.394L27.904,12.642z"/>
<path fill="#FFFFFF" d="M29.016,14.331l-0.064,1.447L28.34,15.95l-0.066-0.172c0.154-0.063,0.264-0.13,0.327-0.2
	c0.065-0.075,0.102-0.168,0.105-0.28l0.001-0.028l-1.095-0.05c-0.156-0.007-0.254,0.004-0.298,0.03
	c-0.041,0.028-0.066,0.08-0.072,0.163L27,15.399l0.042-0.869l0.241,0.008c-0.002,0.083,0.017,0.139,0.059,0.167
	c0.038,0.032,0.136,0.053,0.291,0.058l1.095,0.051l0.003-0.029c0.007-0.112-0.022-0.209-0.078-0.288
	c-0.059-0.079-0.161-0.153-0.308-0.23l0.082-0.162L29.016,14.331z"/>
<path fill="#FFFFFF" d="M28.979,15.99l0.177,1.441l-0.56,0.303l-0.116-0.147c0.139-0.109,0.24-0.225,0.301-0.345
	c0.06-0.118,0.083-0.245,0.067-0.376c-0.011-0.076-0.033-0.125-0.064-0.148c-0.034-0.023-0.103-0.029-0.208-0.016l-0.28,0.032
	l0.011,0.085c0.011,0.09,0.039,0.148,0.079,0.172c0.045,0.028,0.13,0.038,0.254,0.028l0.023,0.184l-0.884,0.105l-0.021-0.183
	c0.114-0.027,0.194-0.063,0.241-0.106c0.048-0.042,0.065-0.101,0.057-0.168l-0.009-0.087l-0.458,0.056
	c-0.104,0.011-0.169,0.035-0.196,0.066c-0.028,0.031-0.037,0.083-0.028,0.161c0.018,0.133,0.081,0.256,0.192,0.372
	c0.11,0.117,0.254,0.211,0.435,0.282l-0.082,0.181l-0.702-0.182l-0.182-1.479l0.242-0.027c0.011,0.08,0.04,0.129,0.082,0.152
	c0.043,0.021,0.144,0.023,0.303,0.003l0.748-0.09c0.16-0.019,0.254-0.041,0.293-0.074c0.037-0.034,0.051-0.089,0.043-0.168
	L28.979,15.99z"/>
<path fill="#FFFFFF" d="M29.675,19.565l0.09,0.006l0.06,0.154l-0.563,0.39l-0.153-0.158c0.134-0.141,0.224-0.267,0.268-0.374
	c0.043-0.106,0.045-0.213,0.005-0.313c-0.051-0.128-0.147-0.201-0.295-0.225c-0.149-0.02-0.336,0.011-0.564,0.101
	c-0.223,0.084-0.377,0.182-0.47,0.293c-0.091,0.112-0.112,0.232-0.062,0.359c0.04,0.102,0.1,0.173,0.182,0.209
	c0.079,0.04,0.167,0.041,0.263,0.001c0.066-0.025,0.109-0.06,0.126-0.101c0.019-0.043,0.012-0.1-0.011-0.174l0.214-0.082
	l0.294,0.756l-0.212,0.082c-0.046-0.07-0.091-0.106-0.137-0.118c-0.044-0.012-0.116,0.002-0.214,0.04L28.006,20.6l-0.096-0.242
	l0.125-0.124c-0.088-0.049-0.16-0.11-0.218-0.175c-0.057-0.066-0.104-0.146-0.142-0.242c-0.088-0.225-0.068-0.44,0.056-0.645
	c0.128-0.202,0.337-0.36,0.633-0.478c0.275-0.105,0.531-0.114,0.769-0.024c0.237,0.088,0.402,0.255,0.498,0.495
	c0.022,0.061,0.039,0.125,0.046,0.188C29.684,19.419,29.684,19.488,29.675,19.565z"/>
<path fill="#FFFFFF" d="M29.858,20.887c0.09-0.048,0.154-0.068,0.194-0.06c0.041,0.012,0.08,0.054,0.12,0.125
	c0.061,0.103,0.081,0.199,0.068,0.285c-0.015,0.085-0.063,0.147-0.146,0.193c-0.091,0.05-0.177,0.05-0.263,0.005
	c-0.084-0.048-0.168-0.146-0.245-0.29c-0.014-0.022-0.025-0.04-0.03-0.054c-0.006-0.012-0.011-0.023-0.016-0.035L29.858,20.887z
	 M29.749,20.185c0.038,0.074,0.047,0.135,0.025,0.177c-0.024,0.048-0.103,0.106-0.239,0.183l-0.667,0.357
	c-0.136,0.072-0.229,0.108-0.281,0.102c-0.049-0.004-0.094-0.044-0.14-0.117l-0.211,0.117l0.426,0.771l0.213-0.113
	c-0.04-0.077-0.047-0.136-0.024-0.182c0.022-0.046,0.102-0.104,0.239-0.176l0.218-0.117l0.083,0.152l-0.477,0.894l0.273,0.495
	l0.208-0.113c-0.026-0.058-0.036-0.114-0.035-0.167c0-0.05,0.018-0.107,0.052-0.175l0.26-0.544c0.106,0.101,0.212,0.158,0.318,0.177
	c0.106,0.017,0.219-0.006,0.336-0.067c0.158-0.088,0.246-0.202,0.264-0.353c0.02-0.144-0.027-0.323-0.144-0.536l-0.487-0.88
	L29.749,20.185z"/>
<path fill="#FFFFFF" d="M30.893,21.742l0.526,0.72l-0.195,0.144c-0.054-0.069-0.106-0.101-0.158-0.101
	c-0.051-0.002-0.14,0.045-0.263,0.134l-0.615,0.438c-0.125,0.09-0.196,0.159-0.211,0.208c-0.016,0.048-0.001,0.107,0.047,0.181
	l-0.197,0.138l-0.527-0.722l0.197-0.14c0.053,0.067,0.104,0.1,0.157,0.1c0.05,0.001,0.142-0.046,0.264-0.133l0.615-0.441
	c0.125-0.09,0.195-0.156,0.21-0.206c0.017-0.047,0.002-0.106-0.047-0.179L30.893,21.742z"/>
<path fill="#FFFFFF" d="M31.572,23.383c0.088-0.068,0.148-0.101,0.185-0.099c0.037,0.004,0.079,0.033,0.128,0.092
	c0.106,0.132,0.139,0.275,0.1,0.433c-0.042,0.155-0.152,0.308-0.333,0.452c-0.177,0.143-0.351,0.218-0.515,0.223
	c-0.165,0.007-0.298-0.058-0.406-0.188c-0.046-0.059-0.069-0.105-0.064-0.144c0.005-0.035,0.05-0.088,0.134-0.155L31.572,23.383z
	 M31.351,22.719c0.047,0.063,0.065,0.114,0.052,0.158c-0.015,0.049-0.084,0.122-0.209,0.221l-0.587,0.472
	c-0.126,0.099-0.213,0.149-0.26,0.152c-0.049,0.005-0.099-0.022-0.15-0.084l-0.191,0.151l0.543,0.671
	c0.21,0.252,0.432,0.395,0.675,0.425c0.241,0.03,0.485-0.053,0.731-0.252c0.248-0.199,0.383-0.416,0.404-0.656
	c0.021-0.237-0.071-0.485-0.278-0.74l-0.542-0.667L31.351,22.719z"/>
<path fill="#FFFFFF" d="M34.286,25.297l0.097-0.074l0.112,0.082l-0.253,0.711l-0.188-0.061c0.048-0.17,0.057-0.325,0.032-0.466
	c-0.027-0.136-0.081-0.24-0.172-0.31c-0.12-0.087-0.255-0.104-0.405-0.048c-0.151,0.055-0.3,0.176-0.438,0.359
	c-0.144,0.185-0.218,0.354-0.227,0.518c-0.008,0.158,0.052,0.288,0.177,0.383c0.085,0.065,0.197,0.101,0.332,0.101
	c0.134,0.005,0.269-0.024,0.404-0.088l0.11,0.212c-0.201,0.104-0.389,0.157-0.569,0.15c-0.177-0.009-0.345-0.069-0.501-0.188
	c-0.225-0.17-0.349-0.382-0.369-0.632c-0.021-0.253,0.062-0.503,0.252-0.751c0.182-0.232,0.396-0.373,0.649-0.421
	c0.254-0.048,0.484,0.009,0.694,0.168c0.055,0.041,0.105,0.092,0.149,0.15C34.214,25.15,34.252,25.22,34.286,25.297z"/>
<path fill="#FFFFFF" d="M35.668,26.364c0.015,0.156-0.03,0.344-0.135,0.564c-0.104,0.221-0.224,0.372-0.355,0.462
	c-0.131,0.085-0.266,0.1-0.396,0.039c-0.135-0.063-0.208-0.174-0.223-0.329c-0.014-0.156,0.031-0.344,0.136-0.565
	c0.106-0.221,0.226-0.374,0.356-0.46c0.131-0.089,0.266-0.101,0.398-0.04C35.58,26.097,35.653,26.206,35.668,26.364z M34.806,25.773
	c-0.239,0.095-0.425,0.279-0.556,0.554c-0.133,0.274-0.158,0.534-0.08,0.777c0.079,0.244,0.245,0.426,0.503,0.549
	c0.257,0.118,0.505,0.136,0.746,0.038c0.242-0.094,0.427-0.278,0.56-0.552c0.13-0.275,0.159-0.535,0.079-0.777
	c-0.078-0.246-0.247-0.427-0.505-0.547C35.296,25.692,35.047,25.682,34.806,25.773z"/>
<path fill="#FFFFFF" d="M36.96,26.92c0.028-0.098,0.063-0.158,0.097-0.179s0.092-0.019,0.171,0.006
	c0.115,0.033,0.201,0.085,0.25,0.154c0.049,0.072,0.063,0.151,0.036,0.241c-0.03,0.097-0.09,0.158-0.184,0.185
	c-0.095,0.027-0.219,0.015-0.381-0.035c-0.027-0.009-0.046-0.011-0.06-0.015c-0.013-0.007-0.024-0.01-0.034-0.014L36.96,26.92z
	 M36.383,26.493c0.08,0.029,0.129,0.067,0.145,0.114c0.016,0.046,0.001,0.144-0.044,0.291l-0.217,0.719
	c-0.044,0.147-0.086,0.236-0.126,0.266c-0.038,0.029-0.1,0.038-0.182,0.016l-0.069,0.232l0.853,0.252l0.069-0.231
	c-0.079-0.024-0.128-0.063-0.145-0.109c-0.015-0.05,0-0.147,0.043-0.293l0.073-0.236l0.168,0.053l0.297,0.968l0.543,0.159
	l0.069-0.224c-0.057-0.025-0.107-0.055-0.143-0.091c-0.035-0.039-0.065-0.093-0.089-0.165l-0.203-0.568
	c0.149-0.003,0.265-0.033,0.355-0.094c0.087-0.063,0.151-0.157,0.189-0.284c0.051-0.169,0.031-0.315-0.059-0.433
	c-0.09-0.118-0.255-0.211-0.485-0.282l-0.973-0.285L36.383,26.493z"/>
<path fill="#FFFFFF" d="M38.933,27.368c0.011-0.101,0.034-0.164,0.059-0.193c0.026-0.028,0.072-0.038,0.139-0.029
	c0.101,0.014,0.177,0.054,0.225,0.118c0.049,0.063,0.07,0.146,0.055,0.247c-0.013,0.111-0.058,0.193-0.133,0.24
	c-0.075,0.05-0.18,0.064-0.314,0.048c-0.02-0.004-0.037-0.005-0.05-0.007c-0.012-0.001-0.022-0.003-0.035-0.007L38.933,27.368z
	 M38.308,27.04c0.075,0.013,0.127,0.04,0.15,0.083c0.02,0.043,0.023,0.144,0.001,0.303l-0.094,0.741
	c-0.021,0.158-0.046,0.251-0.079,0.289c-0.033,0.034-0.087,0.05-0.166,0.042l-0.03,0.237l0.856,0.106l0.029-0.237
	c-0.079-0.014-0.127-0.04-0.15-0.084c-0.021-0.045-0.024-0.143-0.004-0.296l0.026-0.2l0.303,0.039
	c0.216,0.026,0.386,0.002,0.506-0.079c0.119-0.077,0.189-0.21,0.216-0.395c0.023-0.191-0.015-0.343-0.116-0.458
	c-0.104-0.113-0.266-0.183-0.489-0.21l-0.931-0.116L38.308,27.04z"/>
<path fill="#FFFFFF" d="M41.23,27.401c0.085,0.134,0.136,0.321,0.143,0.564c0.012,0.243-0.022,0.433-0.1,0.57
	c-0.075,0.139-0.188,0.209-0.332,0.215c-0.147,0.004-0.264-0.057-0.352-0.19c-0.084-0.131-0.133-0.317-0.142-0.56
	c-0.009-0.244,0.025-0.438,0.101-0.575c0.075-0.138,0.188-0.208,0.334-0.216C41.029,27.207,41.143,27.27,41.23,27.401z
	 M40.191,27.273c-0.169,0.196-0.248,0.44-0.237,0.745c0.011,0.304,0.108,0.546,0.293,0.727c0.185,0.18,0.415,0.265,0.704,0.254
	c0.282-0.009,0.507-0.111,0.678-0.305c0.17-0.192,0.25-0.441,0.239-0.745c-0.012-0.305-0.109-0.548-0.294-0.727
	c-0.184-0.182-0.419-0.265-0.703-0.257C40.588,26.979,40.361,27.079,40.191,27.273z"/>
<path fill="#FFFFFF" d="M42.55,27.322c-0.015-0.1-0.012-0.169,0.009-0.204c0.025-0.031,0.076-0.058,0.159-0.069
	c0.118-0.02,0.216-0.01,0.291,0.03c0.078,0.044,0.123,0.109,0.139,0.201c0.016,0.101-0.011,0.184-0.083,0.247
	c-0.075,0.063-0.191,0.106-0.356,0.134c-0.028,0.004-0.05,0.01-0.06,0.011c-0.015,0-0.029,0.004-0.039,0.005L42.55,27.322z
	 M41.844,27.191c0.084-0.013,0.146,0.001,0.179,0.038c0.036,0.034,0.068,0.128,0.092,0.281l0.124,0.738
	c0.024,0.154,0.028,0.253,0.004,0.295c-0.021,0.046-0.073,0.076-0.157,0.093l0.042,0.236l0.875-0.141l-0.041-0.238
	c-0.083,0.013-0.142-0.001-0.178-0.036c-0.036-0.035-0.065-0.13-0.089-0.284l-0.041-0.241l0.174-0.028l0.694,0.745l0.56-0.095
	l-0.036-0.23c-0.067,0.005-0.123-0.002-0.17-0.022c-0.047-0.019-0.099-0.054-0.15-0.109l-0.434-0.422
	c0.131-0.064,0.223-0.146,0.273-0.237c0.052-0.095,0.067-0.206,0.047-0.339c-0.03-0.173-0.114-0.293-0.246-0.362
	c-0.134-0.066-0.32-0.078-0.563-0.039l-0.999,0.161L41.844,27.191z"/>
<path fill="#FFFFFF" d="M44.93,27.229l-0.334,0.129l-0.027-0.591L44.93,27.229z M44.337,27.85c0,0.008,0,0.021,0,0.038
	c0.003,0.188-0.049,0.317-0.159,0.381l0.089,0.222l0.688-0.263l-0.085-0.218c-0.07,0.022-0.122,0.031-0.155,0.022
	c-0.035-0.01-0.061-0.039-0.08-0.084c-0.002-0.006-0.005-0.017-0.008-0.025c-0.003-0.011-0.004-0.019-0.006-0.03l-0.027-0.277
	l0.507-0.194l0.184,0.218c0.007,0.009,0.014,0.021,0.023,0.032c0.008,0.014,0.013,0.026,0.02,0.043
	c0.014,0.037,0.012,0.068-0.006,0.094c-0.017,0.023-0.055,0.049-0.111,0.071l-0.021,0.009l0.086,0.218l0.801-0.307l-0.087-0.226
	c-0.101,0.026-0.206-0.025-0.312-0.151l-0.009-0.009l-0.987-1.166l-0.377,0.143L44.337,27.85z"/>
<path fill="#FFFFFF" d="M45.265,26.066l1.292-0.672l0.461,0.431l-0.117,0.146c-0.13-0.104-0.244-0.16-0.341-0.178
	c-0.095-0.02-0.195-0.003-0.297,0.052l-0.026,0.011l0.515,0.96c0.071,0.134,0.13,0.214,0.176,0.238
	c0.043,0.022,0.104,0.017,0.179-0.02l0.113,0.213l-0.781,0.406l-0.112-0.211c0.072-0.04,0.11-0.085,0.117-0.134
	c0.007-0.05-0.025-0.142-0.1-0.277l-0.512-0.962l-0.025,0.012c-0.104,0.056-0.173,0.125-0.211,0.215
	c-0.04,0.088-0.054,0.216-0.046,0.381l-0.183,0.012L45.265,26.066z"/>
<path fill="#FFFFFF" d="M46.772,25.256l0.742-0.505l0.137,0.196c-0.07,0.052-0.104,0.103-0.105,0.152
	c0,0.053,0.044,0.141,0.128,0.265l0.432,0.617c0.086,0.125,0.153,0.198,0.205,0.215c0.046,0.017,0.108,0.004,0.18-0.041l0.138,0.198
	l-0.742,0.505l-0.135-0.198c0.069-0.05,0.102-0.103,0.105-0.152c0-0.052-0.042-0.141-0.131-0.267l-0.429-0.616
	c-0.088-0.126-0.156-0.199-0.204-0.216c-0.049-0.016-0.109-0.001-0.182,0.044L46.772,25.256z"/>
<path fill="#FFFFFF" d="M48.824,24.264c0.148,0.06,0.295,0.189,0.443,0.383c0.146,0.195,0.227,0.371,0.243,0.527
	c0.017,0.157-0.035,0.277-0.149,0.364c-0.118,0.087-0.251,0.099-0.397,0.038c-0.147-0.061-0.292-0.185-0.441-0.383
	c-0.146-0.194-0.228-0.369-0.246-0.526c-0.016-0.156,0.035-0.276,0.152-0.366C48.545,24.215,48.677,24.203,48.824,24.264z
	 M47.895,24.742c-0.028,0.253,0.051,0.499,0.232,0.745c0.184,0.244,0.403,0.388,0.658,0.435s0.494-0.016,0.726-0.184
	c0.226-0.169,0.354-0.381,0.385-0.636c0.028-0.253-0.05-0.503-0.235-0.745c-0.182-0.244-0.402-0.391-0.656-0.434
	c-0.253-0.046-0.497,0.015-0.724,0.183C48.052,24.276,47.925,24.488,47.895,24.742z"/>
<path fill="#FFFFFF" d="M51.469,20.675c0.162-0.016,0.351,0.027,0.574,0.133c0.222,0.104,0.377,0.22,0.465,0.348
	c0.091,0.134,0.103,0.263,0.04,0.394c-0.064,0.133-0.173,0.206-0.329,0.221c-0.159,0.015-0.351-0.027-0.571-0.132
	c-0.223-0.105-0.38-0.222-0.467-0.354c-0.09-0.131-0.101-0.261-0.04-0.393C51.202,20.763,51.313,20.688,51.469,20.675z
	 M50.879,21.529c0.094,0.234,0.281,0.421,0.559,0.55c0.276,0.13,0.538,0.155,0.784,0.076c0.247-0.076,0.433-0.244,0.553-0.498
	c0.12-0.255,0.135-0.502,0.037-0.737c-0.093-0.241-0.279-0.424-0.556-0.557c-0.28-0.13-0.542-0.154-0.787-0.076
	c-0.246,0.079-0.429,0.248-0.55,0.503C50.796,21.042,50.783,21.292,50.879,21.529z"/>
<path fill="#FFFFFF" d="M51.373,19.887l0.483-1.391l0.617-0.059l0.03,0.177c-0.159,0.039-0.291,0.1-0.393,0.184
	c-0.103,0.083-0.175,0.187-0.22,0.314c-0.028,0.083-0.031,0.144-0.014,0.183c0.02,0.039,0.079,0.074,0.178,0.107l0.257,0.089
	l0.027-0.075c0.031-0.098,0.034-0.17,0.009-0.218c-0.028-0.048-0.101-0.095-0.212-0.138l0.055-0.156l0.865,0.294L53,19.356
	c-0.112-0.024-0.199-0.024-0.265-0.003c-0.064,0.022-0.11,0.073-0.136,0.149l-0.028,0.077l0.311,0.106
	c0.146,0.049,0.245,0.066,0.292,0.051c0.049-0.013,0.089-0.061,0.12-0.141l0.23,0.08l-0.293,0.845L53,20.443
	c0.023-0.083,0.023-0.143-0.006-0.185c-0.028-0.04-0.117-0.087-0.264-0.139l-0.718-0.241c-0.145-0.052-0.24-0.071-0.287-0.055
	c-0.048,0.016-0.09,0.062-0.125,0.138L51.373,19.887z"/>
<path fill="#FFFFFF" d="M52.337,16.388l-0.117-0.049l0.019-0.135l0.749-0.133l0.039,0.192c-0.173,0.043-0.312,0.109-0.423,0.201
	c-0.11,0.091-0.17,0.191-0.185,0.302c-0.02,0.145,0.033,0.268,0.157,0.372c0.124,0.102,0.301,0.171,0.532,0.201
	c0.234,0.031,0.421,0.011,0.568-0.06c0.144-0.073,0.227-0.187,0.247-0.345c0.017-0.106-0.01-0.218-0.076-0.335
	c-0.064-0.115-0.157-0.22-0.28-0.304l0.133-0.199c0.193,0.122,0.33,0.26,0.411,0.416c0.084,0.156,0.112,0.332,0.084,0.525
	c-0.035,0.275-0.162,0.484-0.372,0.628c-0.213,0.143-0.47,0.194-0.782,0.151c-0.295-0.038-0.527-0.155-0.692-0.348
	c-0.166-0.196-0.231-0.423-0.196-0.683c0.008-0.07,0.028-0.135,0.059-0.2C52.241,16.522,52.281,16.454,52.337,16.388z"/>
<path fill="#FFFFFF" d="M52.231,16.015l-0.037-0.871l0.233-0.008c0.006,0.08,0.03,0.136,0.076,0.162
	c0.042,0.026,0.144,0.036,0.298,0.032L53,15.322l-0.027-0.666l-0.199,0.008c-0.158,0.008-0.257,0.024-0.296,0.057
	c-0.043,0.031-0.062,0.086-0.062,0.166l-0.232,0.013l-0.036-0.874l0.242-0.009c0.007,0.081,0.03,0.135,0.07,0.162
	c0.043,0.025,0.142,0.038,0.302,0.029l0.754-0.03c0.158-0.006,0.255-0.025,0.296-0.055c0.037-0.031,0.058-0.085,0.056-0.167
	l0.241-0.009l0.038,0.869l-0.232,0.009c-0.005-0.079-0.028-0.133-0.072-0.161c-0.043-0.027-0.145-0.036-0.3-0.029l-0.329,0.012
	l0.028,0.665l0.329-0.014c0.158-0.008,0.257-0.025,0.297-0.056c0.039-0.029,0.06-0.085,0.056-0.166l0.234-0.011l0.038,0.87
	l-0.243,0.011c-0.007-0.081-0.031-0.135-0.072-0.162c-0.042-0.027-0.143-0.036-0.297-0.03l-0.755,0.03
	c-0.157,0.006-0.254,0.024-0.296,0.055c-0.041,0.031-0.06,0.088-0.06,0.167L52.231,16.015z"/>
<path fill="#FFFFFF" d="M52.143,13.928c0,0-0.041-0.183-0.088-0.479c-0.048-0.294-0.073-0.398-0.073-0.398l0.238-0.041
	c0.021,0.083,0.053,0.135,0.099,0.158c0.047,0.021,0.146,0.019,0.297-0.009l0.747-0.133c0.148-0.026,0.242-0.058,0.279-0.096
	c0.036-0.036,0.048-0.097,0.038-0.181l0.237-0.043l0.16,0.874l-0.239,0.043c-0.018-0.082-0.052-0.133-0.098-0.155
	c-0.047-0.022-0.146-0.02-0.297,0.008l-0.745,0.132c-0.154,0.027-0.247,0.061-0.282,0.097c-0.036,0.035-0.047,0.096-0.036,0.181
	L52.143,13.928z"/>
<path fill="#FFFFFF" d="M51.974,12.953l-0.203-0.716l0.914-0.891l-0.507,0.143c-0.148,0.043-0.241,0.083-0.271,0.117
	c-0.033,0.038-0.04,0.097-0.021,0.177l-0.227,0.063l-0.177-0.624l0.233-0.068c0.023,0.079,0.06,0.126,0.109,0.142
	c0.046,0.017,0.146,0.003,0.295-0.041l1.309-0.364l0.09,0.308l-1.227,1.205l0.878-0.25c0.149-0.039,0.241-0.08,0.274-0.12
	c0.03-0.034,0.038-0.095,0.019-0.175l0.226-0.064l0.182,0.633l-0.234,0.063c-0.024-0.076-0.062-0.123-0.111-0.14
	c-0.047-0.016-0.144-0.003-0.296,0.038l-0.725,0.204c-0.15,0.043-0.242,0.082-0.274,0.12c-0.031,0.039-0.039,0.098-0.017,0.177
	L51.974,12.953z"/>
<path fill="#FFFFFF" d="M52.07,10.102l0.148,0.324l-0.594,0.062L52.07,10.102z M52.729,10.657c0.009-0.001,0.021-0.002,0.037-0.003
	c0.194-0.016,0.324,0.031,0.392,0.134l0.221-0.099l-0.303-0.666l-0.217,0.097c0.03,0.067,0.042,0.119,0.033,0.152
	c-0.007,0.036-0.035,0.062-0.08,0.082c-0.008,0.004-0.016,0.007-0.027,0.01c-0.008,0.003-0.02,0.006-0.028,0.009l-0.28,0.044
	l-0.222-0.494l0.209-0.193c0.009-0.006,0.02-0.016,0.031-0.022c0.013-0.008,0.026-0.017,0.042-0.021
	c0.039-0.018,0.067-0.019,0.097-0.001c0.024,0.015,0.05,0.054,0.078,0.106l0.006,0.02l0.218-0.096l-0.354-0.777L52.36,9.036
	c0.03,0.1-0.013,0.205-0.133,0.32l-0.01,0.004l-1.124,1.04l0.164,0.365L52.729,10.657z"/>
<path fill="#FFFFFF" d="M48.942,23.579l0.484-0.569l1.257,0.247l-0.405-0.335c-0.119-0.097-0.202-0.152-0.251-0.156
	c-0.051-0.005-0.104,0.021-0.158,0.08l-0.18-0.149l0.42-0.5l0.188,0.155c-0.052,0.063-0.07,0.121-0.057,0.169
	c0.013,0.048,0.081,0.12,0.201,0.221l1.04,0.866l-0.206,0.244l-1.695-0.327l0.699,0.582c0.118,0.098,0.202,0.151,0.252,0.155
	c0.049,0.004,0.104-0.024,0.159-0.083l0.183,0.148l-0.426,0.503l-0.187-0.155c0.051-0.063,0.069-0.122,0.057-0.168
	c-0.013-0.05-0.081-0.121-0.2-0.223l-0.579-0.477c-0.119-0.1-0.203-0.153-0.255-0.157c-0.048-0.006-0.102,0.023-0.156,0.084
	L48.942,23.579z"/>
<path fill="#FFFFFF" d="M29.744,15.397c0,5.983,4.868,10.851,10.852,10.851c5.984,0,10.853-4.867,10.853-10.851
	c0-5.984-4.869-10.854-10.853-10.854C34.612,4.544,29.744,9.413,29.744,15.397z M29.971,15.397c0-5.859,4.766-10.627,10.624-10.627
	c5.859,0,10.625,4.768,10.625,10.627c0,5.858-4.766,10.624-10.625,10.624C34.737,26.021,29.971,21.256,29.971,15.397z"/>
<radialGradient id="SVGID_1_" cx="264.5195" cy="-557.9341" r="31.1798" fx="263.2643" fy="-558.9406" gradientTransform="matrix(0.348 0 0 0.348 -55.709 204.7233)" gradientUnits="userSpaceOnUse">
	<stop  offset="0" style="stop-color:#FFFFFF"/>
	<stop  offset="1" style="stop-color:#FFFFFF"/>
</radialGradient>
<path fill="url(#SVGID_1_)" d="M40.588,5.386c-3.345,0.924-5.879,5.247-5.879,10.443c0,0.654,0.041,1.295,0.117,1.916
	c0.573,0.186,1.178,0.337,1.809,0.456c-0.134-0.837-0.206-1.715-0.206-2.624c0-4.305,1.605-7.97,3.85-9.353
	c-1.769,1.938-2.916,5.039-2.916,8.537c0,1.268,0.152,2.484,0.429,3.611c0.839,0.094,1.715,0.128,2.614,0.092
	c4.719-0.187,8.66-2.2,10.042-4.845c-0.839-4.681-4.93-8.233-9.852-8.233C40.595,5.386,40.592,5.386,40.588,5.386z"/>
<radialGradient id="SVGID_2_" cx="264.5195" cy="-557.9175" r="31.1617" fx="263.265" fy="-558.9233" gradientTransform="matrix(0.348 0 0 0.348 -55.709 204.7233)" gradientUnits="userSpaceOnUse">
	<stop  offset="0" style="stop-color:#FFFFFF"/>
	<stop  offset="1" style="stop-color:#FFFFFF"/>
</radialGradient>
<path fill="url(#SVGID_2_)" d="M37.169,20.426c-0.158-0.481-0.293-0.987-0.402-1.513c-0.658-0.145-1.277-0.328-1.85-0.542
	c0.086,0.516,0.198,1.019,0.334,1.503C35.854,20.095,36.497,20.279,37.169,20.426z"/>
<radialGradient id="SVGID_3_" cx="264.5205" cy="-557.936" r="31.1811" fx="263.2653" fy="-558.9425" gradientTransform="matrix(0.348 0 0 0.348 -55.709 204.7233)" gradientUnits="userSpaceOnUse">
	<stop  offset="0" style="stop-color:#FFFFFF"/>
	<stop  offset="1" style="stop-color:#FFFFFF"/>
</radialGradient>
<path fill="url(#SVGID_3_)" d="M37.588,21.525c-0.661-0.085-1.298-0.203-1.901-0.352c0.494,1.248,1.155,2.335,1.939,3.192
	c-1.08-0.667-2.01-1.858-2.686-3.396c-1.488-0.448-2.74-1.087-3.638-1.852c1.478,3.686,5.082,6.287,9.294,6.287
	c0.233,0,0.464-0.009,0.693-0.023C39.78,24.95,38.467,23.53,37.588,21.525z"/>
<radialGradient id="SVGID_4_" cx="264.5186" cy="-557.9365" r="31.1815" fx="263.2633" fy="-558.9431" gradientTransform="matrix(0.348 0 0 0.348 -55.709 204.7233)" gradientUnits="userSpaceOnUse">
	<stop  offset="0" style="stop-color:#FFFFFF"/>
	<stop  offset="1" style="stop-color:#FFFFFF"/>
</radialGradient>
<path fill="url(#SVGID_4_)" d="M41.27,19.29c-1.14,0.046-2.238-0.012-3.268-0.155c0.165,0.536,0.358,1.051,0.579,1.535
	c0.74,0.096,1.508,0.148,2.295,0.148c3.611,0,6.811-1.059,8.806-2.691c-1.426,2.07-5.203,3.555-9.646,3.555
	c-0.318,0-0.634-0.009-0.945-0.024c0.991,1.71,2.344,2.949,3.884,3.464c4.361-1.063,7.601-4.98,7.63-9.662
	C49.228,17.539,45.593,19.12,41.27,19.29z"/>
<radialGradient id="SVGID_5_" cx="264.5186" cy="-557.9341" r="31.1804" fx="263.2633" fy="-558.9406" gradientTransform="matrix(0.348 0 0 0.348 -55.709 204.7233)" gradientUnits="userSpaceOnUse">
	<stop  offset="0" style="stop-color:#FFFFFF"/>
	<stop  offset="1" style="stop-color:#FFFFFF"/>
</radialGradient>
<path fill="url(#SVGID_5_)" d="M34.415,19.537c-0.146-0.49-0.271-1.005-0.37-1.538c-1.064-0.513-1.907-1.152-2.448-1.883
	c0.669,0.51,1.464,0.952,2.354,1.313c-0.113-0.774-0.173-1.583-0.173-2.416c0-3.991,1.379-7.435,3.371-9.018
	c-3.83,1.406-6.562,5.085-6.562,9.401c0,0.396,0.023,0.784,0.068,1.168C31.418,17.762,32.735,18.791,34.415,19.537z"/>
<path fill="#FFFFFF" d="M70.056,19.42l0.153-0.402h0.686l0.629,2.29l-0.76,0.285c-0.267-0.51-0.603-0.909-1.008-1.193
	c-0.398-0.287-0.823-0.428-1.264-0.428c-0.337,0-0.605,0.071-0.804,0.219c-0.203,0.149-0.303,0.34-0.303,0.58
	c0,0.393,0.618,0.738,1.854,1.034c0.18,0.044,0.312,0.079,0.404,0.105c0.882,0.225,1.496,0.51,1.833,0.855
	c0.34,0.352,0.509,0.83,0.509,1.447c0,0.821-0.256,1.479-0.769,1.981c-0.509,0.498-1.184,0.747-2.024,0.747
	c-0.363,0-0.717-0.047-1.059-0.143c-0.337-0.092-0.668-0.233-0.979-0.417l-0.122,0.486H66.36l-0.865-2.87l0.848-0.31
	c0.326,0.689,0.727,1.224,1.201,1.596c0.472,0.376,0.973,0.563,1.509,0.563c0.372,0,0.688-0.103,0.941-0.298
	c0.253-0.201,0.379-0.436,0.379-0.705c0-0.413-0.533-0.756-1.599-1.036c-0.144-0.037-0.253-0.063-0.332-0.085
	c-0.523-0.141-0.94-0.265-1.247-0.371c-0.306-0.112-0.522-0.213-0.647-0.306c-0.268-0.192-0.474-0.437-0.621-0.731
	c-0.141-0.295-0.211-0.624-0.211-0.979c0-0.706,0.247-1.289,0.736-1.755c0.492-0.466,1.12-0.696,1.885-0.696
	c0.313,0,0.611,0.044,0.894,0.133C69.515,19.109,69.792,19.244,70.056,19.42z"/>
<path fill="#FFFFFF" d="M72.419,20.508h4.915l0.68,1.924l-0.572,0.234c-0.233-0.479-0.479-0.813-0.734-1.011
	c-0.258-0.194-0.579-0.293-0.967-0.293h-0.093v3.48c0,0.489,0.051,0.799,0.147,0.933c0.095,0.131,0.282,0.2,0.56,0.212v0.781h-2.952
	v-0.781c0.274-0.012,0.459-0.081,0.556-0.209c0.099-0.128,0.145-0.441,0.145-0.936v-3.48h-0.089c-0.391,0-0.714,0.099-0.974,0.293
	c-0.253,0.198-0.496,0.532-0.728,1.011l-0.571-0.234L72.419,20.508z"/>
<path fill="#FFFFFF" d="M80.639,23.738h-1.205l0.643-1.798L80.639,23.738z M78.015,24.92c-0.008,0.026-0.026,0.064-0.044,0.114
	c-0.225,0.583-0.545,0.904-0.962,0.968v0.767h2.487V26.02c-0.247-0.004-0.42-0.044-0.517-0.107
	c-0.097-0.069-0.142-0.187-0.142-0.348c0-0.02,0-0.051,0.003-0.083c0.006-0.032,0.015-0.067,0.022-0.101l0.254-0.87h1.82l0.312,0.87
	c0.015,0.036,0.026,0.078,0.032,0.125c0.01,0.044,0.016,0.094,0.016,0.151c0,0.131-0.045,0.224-0.131,0.279
	s-0.236,0.083-0.447,0.083h-0.073v0.749h2.899v-0.767c-0.347-0.043-0.611-0.315-0.795-0.818l-0.01-0.036l-1.666-4.64h-1.358
	L78.015,24.92z"/>
<path fill="#FFFFFF" d="M83.219,20.508h4.913l0.683,1.924l-0.574,0.234c-0.232-0.479-0.476-0.813-0.732-1.011
	c-0.259-0.194-0.58-0.293-0.967-0.293h-0.088v3.48c0,0.489,0.041,0.799,0.143,0.933c0.098,0.131,0.282,0.2,0.561,0.212v0.781h-2.953
	v-0.781c0.272-0.012,0.461-0.081,0.558-0.209c0.095-0.128,0.146-0.441,0.146-0.936v-3.48h-0.09c-0.391,0-0.714,0.099-0.972,0.293
	c-0.258,0.198-0.503,0.532-0.73,1.011l-0.57-0.234L83.219,20.508z"/>
<path fill="#FFFFFF" d="M88.652,20.508h4.924l0.795,1.888L93.832,22.7c-0.323-0.481-0.666-0.837-1.043-1.073
	c-0.377-0.237-0.791-0.355-1.24-0.355c-0.256,0-0.432,0.045-0.523,0.143c-0.09,0.095-0.136,0.315-0.136,0.657v0.896h0.286
	c0.305,0,0.511-0.063,0.617-0.188c0.105-0.122,0.171-0.383,0.191-0.781h0.637v2.825h-0.637c-0.037-0.376-0.123-0.645-0.252-0.813
	c-0.129-0.166-0.314-0.248-0.557-0.248H90.89v1.465c0,0.337,0.048,0.552,0.14,0.649c0.092,0.096,0.275,0.144,0.541,0.144
	c0.447,0,0.889-0.153,1.332-0.458c0.435-0.305,0.812-0.729,1.123-1.269l0.576,0.323l-0.904,2.152h-5.045v-0.771
	c0.27-0.01,0.454-0.076,0.547-0.203c0.102-0.129,0.146-0.449,0.146-0.953v-2.4c0-0.507-0.044-0.824-0.146-0.956
	c-0.093-0.128-0.277-0.196-0.547-0.201V20.508z"/>
<path fill="#FFFFFF" d="M103.189,19.289l0.16-0.321h0.693l0.675,2.625l-0.85,0.334c-0.344-0.699-0.694-1.205-1.055-1.519
	c-0.357-0.317-0.763-0.474-1.207-0.474c-0.567,0-1.006,0.253-1.313,0.762c-0.31,0.509-0.464,1.239-0.464,2.194
	c0,0.938,0.151,1.657,0.448,2.15s0.729,0.737,1.299,0.737c0.454,0,0.812-0.118,1.077-0.358c0.27-0.234,0.406-0.556,0.406-0.954
	c0-0.278-0.07-0.479-0.209-0.605c-0.138-0.122-0.373-0.191-0.7-0.204v-0.898h3.411v0.898c-0.335,0.074-0.558,0.186-0.666,0.333
	c-0.108,0.144-0.167,0.425-0.167,0.833v2.048h-1.099l-0.291-0.634c-0.327,0.248-0.662,0.43-1.01,0.545
	c-0.345,0.113-0.728,0.171-1.149,0.171c-1.01,0-1.815-0.374-2.42-1.126c-0.609-0.752-0.912-1.751-0.912-2.993
	c0-1.164,0.35-2.114,1.051-2.855c0.698-0.733,1.59-1.106,2.677-1.106c0.268,0,0.534,0.035,0.794,0.103
	C102.627,19.035,102.901,19.145,103.189,19.289z"/>
<path fill="#FFFFFF" d="M107.676,22.072c0-0.325,0.049-0.54,0.144-0.636c0.095-0.095,0.281-0.143,0.565-0.143
	c0.397,0,0.717,0.087,0.948,0.255c0.233,0.169,0.35,0.401,0.35,0.7c0,0.328-0.137,0.576-0.414,0.738
	c-0.275,0.163-0.693,0.244-1.256,0.244c-0.093,0-0.159-0.001-0.207-0.001c-0.047-0.003-0.089-0.006-0.13-0.01V22.072z
	 M105.405,21.294c0.285,0.008,0.476,0.078,0.571,0.209c0.096,0.13,0.143,0.44,0.143,0.939v2.402c0,0.492-0.047,0.803-0.143,0.932
	c-0.096,0.126-0.286,0.198-0.571,0.211v0.781h2.997v-0.781c-0.288-0.012-0.478-0.081-0.58-0.211
	c-0.096-0.129-0.146-0.439-0.146-0.932v-0.784h0.597l1.894,2.708h1.9v-0.765c-0.207-0.021-0.392-0.07-0.538-0.154
	c-0.15-0.086-0.297-0.219-0.445-0.417l-1.2-1.557c0.468-0.138,0.815-0.345,1.04-0.611c0.228-0.271,0.339-0.624,0.339-1.05
	c0-0.573-0.201-0.999-0.606-1.281c-0.409-0.282-1.021-0.426-1.845-0.426h-3.405V21.294z"/>
<path fill="#FFFFFF" d="M111.832,20.508h3.011v0.786c-0.285,0.008-0.48,0.078-0.577,0.215c-0.1,0.133-0.153,0.444-0.153,0.932v2.4
	c0,0.487,0.054,0.797,0.153,0.931c0.097,0.131,0.292,0.203,0.577,0.216v0.781h-3.011v-0.781c0.286-0.013,0.479-0.085,0.579-0.216
	c0.1-0.134,0.15-0.443,0.15-0.931v-2.4c0-0.49-0.051-0.803-0.15-0.932c-0.101-0.13-0.293-0.204-0.579-0.215V20.508z"/>
<path fill="#FFFFFF" d="M117.345,22.067c0-0.35,0.042-0.566,0.128-0.653c0.086-0.089,0.26-0.131,0.519-0.131
	c0.574,0,1.027,0.209,1.354,0.624c0.335,0.418,0.499,0.993,0.499,1.731c0,0.735-0.164,1.313-0.499,1.731
	c-0.327,0.418-0.78,0.627-1.354,0.627c-0.259,0-0.433-0.041-0.519-0.126c-0.086-0.087-0.128-0.305-0.128-0.649V22.067z
	 M115.129,21.283c0.264,0.005,0.438,0.072,0.532,0.193c0.094,0.126,0.134,0.448,0.134,0.964v2.4c0,0.513-0.04,0.831-0.134,0.957
	s-0.269,0.189-0.532,0.199v0.771h2.912c1.111,0,1.961-0.268,2.549-0.803c0.586-0.538,0.88-1.311,0.88-2.327
	c0-1.009-0.294-1.785-0.884-2.325c-0.585-0.535-1.436-0.806-2.545-0.806h-2.912V21.283z"/>
<path fill="#FFFFFF" d="M73.055,13.407v-1.977h0.969c-0.27,0.28-0.532,0.506-0.789,0.673c0.488,0.434,0.785,0.729,0.899,0.887
	c0.116,0.154,0.211,0.294,0.298,0.417H73.055z M68.159,14.942l1.242-0.038h5.519l1.313,0.038v-1.569l-1.061,0.034
	c0.239-0.271,0.457-0.517,0.668-0.734l-0.349-0.36l-0.498-0.498c-0.081-0.077-0.192-0.208-0.333-0.384l1.058,0.059V9.864
	l-0.904,0.035h-1.76V8.452h1.846l1.231,0.071V6.882l-1.317,0.04H69.56l-1.211-0.04v1.617l1.211-0.047h1.818v1.447h-1.452
	l-1.217-0.035v1.606l1.217-0.04h1.452v1.977h-1.961l-1.258-0.034V14.942z M66.265,6.009v9.865l-0.044,1.71h1.705v-0.205h8.542v0.309
	h1.741l-0.05-1.708V6.009l0.05-1.59l-1.394,0.05h-9.182l-1.414-0.05L66.265,6.009z M67.926,6.073h8.542v9.726h-8.542V6.073z"/>
<path fill="#FFFFFF" d="M83.855,14.452c1.051-0.597,1.859-1.126,2.434-1.589c-0.031-0.113-0.076-0.219-0.131-0.316
	c-0.775,0.483-1.476,0.899-2.091,1.242c-0.622,0.342-1.528,0.705-2.721,1.104c-0.093-0.23-0.187-0.429-0.276-0.603
	c-0.086-0.179-0.275-0.501-0.572-0.962c0.564-0.102,1.052-0.214,1.465-0.339c0.41-0.131,0.922-0.337,1.527-0.622
	c0.602-0.286,1.186-0.621,1.743-1.002l-0.156-0.146c-0.696,0.281-1.226,0.474-1.595,0.585c-0.363,0.113-0.957,0.281-1.771,0.507
	c-0.089-0.202-0.169-0.389-0.242-0.556c-0.074-0.163-0.282-0.516-0.625-1.052c0.449-0.043,1.068-0.129,1.846-0.261
	c0.778-0.125,1.77-0.507,2.965-1.143h-2.065l-1.21,0.037V7.752l1.21,0.038h5.864l1.357-0.038v1.586l-1.357-0.037h-2.068
	c0.175,0.148,0.37,0.303,0.579,0.449c-0.509,0.301-0.998,0.59-1.464,0.864c0.434,0.332,0.695,0.565,0.777,0.699l0.277,0.396
	c1.094-0.78,1.727-1.267,1.913-1.459l0.698-0.685c0.141,0.184,0.273,0.327,0.393,0.451c0.117,0.121,0.472,0.4,1.044,0.831
	c-0.647,0.444-1.218,0.843-1.708,1.18c0.082,0.298,0.233,0.736,0.445,1.319c0.215,0.576,0.621,1.134,1.223,1.664
	c0.596,0.531,1.245,0.944,1.939,1.24c-0.233,0.272-0.419,0.496-0.564,0.679c-0.139,0.184-0.346,0.503-0.621,0.954
	c-0.91-0.582-1.58-1.115-2.002-1.596c-0.425-0.478-0.768-0.976-1.025-1.481c-0.265-0.511-0.508-1.152-0.737-1.931l-0.518,0.29
	c0.034,0.261,0.061,0.493,0.079,0.709c0.021,0.214,0.03,0.612,0.037,1.206c0,0.59-0.037,1.073-0.108,1.447
	c-0.07,0.377-0.253,0.72-0.551,1.017c-0.296,0.304-1.001,0.457-2.122,0.474c-0.136-0.642-0.24-1.045-0.305-1.21l-0.274-0.646
	c0.737,0.122,1.19,0.119,1.368-0.014c0.18-0.14,0.289-0.353,0.326-0.647c0.036-0.291,0.051-0.525,0.051-0.701v-0.179
	c-0.502,0.36-1.133,0.754-1.895,1.177c-0.76,0.428-1.404,0.737-1.937,0.936l-1.853,0.72c-0.201-0.457-0.367-0.781-0.496-0.966
	l-0.436-0.648C81.494,15.51,82.807,15.045,83.855,14.452z M80.259,8.653l0.03-0.787V6.242l-0.03-1.064l1.577,0.052H85.6
	c-0.17-0.204-0.42-0.446-0.744-0.735c0.201-0.083,0.384-0.165,0.54-0.248c0.159-0.077,0.486-0.278,0.978-0.593
	c0.621,0.562,1.082,0.987,1.368,1.269c-0.146,0.102-0.27,0.204-0.368,0.307h4.033l1.48-0.052L92.85,6.242v1.637l0.037,0.83h-1.789
	l0.029-0.83V6.819L82.018,6.83v1.037l0.033,0.787H80.259z"/>
<path fill="#FFFFFF" d="M96.913,7.437h2.685v1.719h-2.685V7.437z M95.18,7.021v5.752l-0.033,1.533h1.767v-0.226h2.685v2.174
	c0,0.343,0.03,0.615,0.099,0.82c0.069,0.205,0.235,0.394,0.5,0.556c0.269,0.17,0.673,0.251,1.218,0.251
	c0.548,0.004,1.255,0.016,2.121,0.036c0.894,0.027,1.563,0.034,1.995,0.008c0.438-0.026,0.77-0.086,0.986-0.172
	c0.22-0.093,0.42-0.249,0.601-0.462c0.189-0.222,0.422-0.842,0.71-1.862c-0.498-0.176-1.063-0.469-1.699-0.875l-0.09,0.59
	c-0.042,0.386-0.158,0.651-0.338,0.802s-0.416,0.242-0.701,0.272c-0.284,0.034-0.758,0.039-1.415,0.021l-1.544-0.037
	c-0.334-0.014-0.539-0.076-0.618-0.183c-0.08-0.102-0.118-0.221-0.118-0.353v-1.586h3.063v0.28h1.775l-0.042-1.475V7.021
	l0.042-1.312l-1.144,0.053h-3.695V4.917l0.032-1.186h-1.771l0.032,1.186v0.846h-3.13l-1.321-0.053L95.18,7.021z M96.913,10.753
	h2.685v1.689h-2.685V10.753z M101.304,7.437h3.063v1.719h-3.063V7.437z M101.304,10.753h3.063v1.689h-3.063V10.753z"/>
<path fill="#FFFFFF" d="M111.44,8.769l0.354,0.519c0.1,0.144,0.42,0.67,0.971,1.565c-0.184,0.622-0.374,1.096-0.573,1.433
	c-0.201,0.336-0.453,0.687-0.751,1.068V8.769z M111.464,17.376l-0.023-1.969v-1.818c0.361,0.374,0.604,0.639,0.72,0.803
	c0.119,0.16,0.233,0.318,0.349,0.484c0.512-0.729,0.83-1.217,0.955-1.463c0.121-0.246,0.228-0.461,0.323-0.647l0.187,0.402
	c0.031,0.08,0.093,0.282,0.18,0.614l0.324-0.324c0.196-0.195,0.56-0.447,1.093-0.752c-0.364-0.716-0.716-1.395-1.063-2.04
	l0.146-0.51c0.049-0.181,0.136-0.575,0.271-1.196c0.452,0.588,0.729,0.959,0.842,1.119c0.11,0.158,0.303,0.521,0.584,1.094
	l-0.219,0.631c-0.153,0.446-0.364,0.887-0.622,1.321c-0.263,0.438-0.633,0.896-1.113,1.377c0.477,0.282,0.785,0.482,0.936,0.607
	c0.146,0.124,0.313,0.274,0.497,0.445c0.255-0.307,0.473-0.578,0.635-0.826c0.162-0.246,0.479-0.815,0.967-1.705l0.382,0.816
	c0.031,0.075,0.124,0.327,0.269,0.752c0.482-0.517,0.923-0.947,1.332-1.275l-0.25-0.486c-0.02-0.039-0.369-0.668-1.046-1.89
	l0.196-0.941c0.075-0.347,0.162-0.813,0.25-1.399l0.127-0.899c0.013-0.103,0.037-0.253,0.068-0.454
	c-0.575-0.039-1.153-0.124-1.744-0.246v0.472c0,0.251-0.05,0.748-0.15,1.487c-0.25-0.361-0.476-0.685-0.679-0.97l-0.308,0.289
	c-0.175,0.17-0.479,0.36-0.919,0.571l0.152-0.79c0-0.016,0.017-0.139,0.054-0.379c0.043-0.238,0.072-0.437,0.101-0.598
	c-0.679-0.066-1.257-0.178-1.726-0.332l-0.023,0.609c-0.01,0.264-0.03,0.506-0.061,0.73c-0.029,0.228-0.063,0.465-0.12,0.721
	c-0.275-0.413-0.532-0.794-0.742-1.145c-0.363,0.323-0.62,0.519-0.751,0.592c-0.14,0.071-0.272,0.14-0.4,0.196V6.407h7.998v8.803
	c0,0.174-0.034,0.313-0.1,0.415c-0.067,0.099-0.272,0.141-0.622,0.131c-0.295-0.008-0.612-0.032-0.946-0.089l0.213,0.484
	c0.198,0.462,0.312,0.81,0.34,1.048c0.026,0.235,0.049,0.427,0.063,0.567c0.902-0.062,1.555-0.166,1.957-0.319
	c0.404-0.146,0.641-0.357,0.709-0.628c0.071-0.266,0.1-0.558,0.1-0.865V6.466l0.035-1.821l-1.686,0.056h-8.161l-1.731-0.056
	l0.043,1.821v8.941l-0.043,1.969H111.464z"/>
</svg>
